<?xml version="1.0" encoding="UTF-8"?>
<svg width="512" height="512" viewBox="0 0 512 512" fill="none" xmlns="http://www.w3.org/2000/svg">
  <path d="M256 32C149.97 32 64 117.97 64 224V384C64 401.67 78.33 416 96 416H128C145.67 416 160 401.67 160 384V352C160 334.33 174.33 320 192 320H320C337.67 320 352 334.33 352 352V384C352 401.67 366.33 416 384 416H416C433.67 416 448 401.67 448 384V224C448 117.97 362.03 32 256 32Z" fill="#4285F4"/>
  <path d="M256 32C149.97 32 64 117.97 64 224V384C64 401.67 78.33 416 96 416H128C145.67 416 160 401.67 160 384V352C160 334.33 174.33 320 192 320H320C337.67 320 352 334.33 352 352V384C352 401.67 366.33 416 384 416H416C433.67 416 448 401.67 448 384V224C448 117.97 362.03 32 256 32Z" fill="url(#paint0_linear)"/>
  <path d="M160 384V352C160 334.33 174.33 320 192 320H320C337.67 320 352 334.33 352 352V384C352 401.67 366.33 416 384 416H416C433.67 416 448 401.67 448 384V224C448 117.97 362.03 32 256 32C149.97 32 64 117.97 64 224V384C64 401.67 78.33 416 96 416H128C145.67 416 160 401.67 160 384Z" stroke="white" stroke-width="16" stroke-linecap="round" stroke-linejoin="round"/>
  <circle cx="176" cy="192" r="24" fill="white"/>
  <circle cx="336" cy="192" r="24" fill="white"/>
  <path d="M192 448L224 416H288L320 448L288 480H224L192 448Z" fill="#4285F4"/>
  <path d="M192 448L224 416H288L320 448L288 480H224L192 448Z" stroke="white" stroke-width="8" stroke-linecap="round" stroke-linejoin="round"/>
  <defs>
    <linearGradient id="paint0_linear" x1="64" y1="32" x2="448" y2="416" gradientUnits="userSpaceOnUse">
      <stop stop-color="#4285F4"/>
      <stop offset="1" stop-color="#34A853"/>
    </linearGradient>
  </defs>
</svg>
